<mxfile host="65bd71144e" compressed="false">
    <diagram id="Topology" name="Topology">
        <mxGraphModel dx="844" dy="1758" grid="0" gridSize="10" guides="1" tooltips="1" connect="1" arrows="1" fold="1" page="1" pageScale="1" pageWidth="827" pageHeight="1169" math="0" shadow="0">
            <root>
                <mxCell id="0"/>
                <mxCell id="1" parent="0"/>
                <object label="p1 1.255.0.2/32" id="p1">
                    <mxCell style="rounded=1;whiteSpace=wrap;html=1;" parent="1" vertex="1">
                        <mxGeometry x="410" y="80" width="80" height="60" as="geometry"/>
                    </mxCell>
                </object>
                <object label="macvlan {}" id="macvlan">
                    <mxCell style="rounded=1;whiteSpace=wrap;html=1;" parent="1" vertex="1">
                        <mxGeometry x="220" y="-110" width="80" height="60" as="geometry"/>
                    </mxCell>
                </object>
                <object label="" src_label="Gi0/0/0/0" trgt_label="ens256.111" source="p1" target="macvlan" id="98c2c740f6a1b49c9adaff642d7a0878">
                    <mxCell style="endArrow=none;" parent="1" source="p1" target="macvlan" edge="1">
                        <mxGeometry relative="1" as="geometry"/>
                    </mxCell>
                </object>
                <mxCell id="98c2c740f6a1b49c9adaff642d7a0878-src" value="Gi0/0/0/0" style="labelBackgroundColor=#ffffff;;" parent="98c2c740f6a1b49c9adaff642d7a0878" vertex="1" connectable="0">
                    <mxGeometry x="-0.5" relative="1" as="geometry">
                        <mxPoint as="offset"/>
                    </mxGeometry>
                </mxCell>
                <mxCell id="98c2c740f6a1b49c9adaff642d7a0878-trgt" value="ens256.111" style="labelBackgroundColor=#ffffff;;" parent="98c2c740f6a1b49c9adaff642d7a0878" vertex="1" connectable="0">
                    <mxGeometry x="0.5" relative="-1" as="geometry">
                        <mxPoint as="offset"/>
                    </mxGeometry>
                </mxCell>
                <object label="p2 1.255.0.3/32" id="p2">
                    <mxCell style="rounded=1;whiteSpace=wrap;html=1;" parent="1" vertex="1">
                        <mxGeometry x="90" y="80" width="80" height="60" as="geometry"/>
                    </mxCell>
                </object>
                <object label="" src_label="Gi0-0-0-0" trgt_label="ens256.112" source="p2" target="macvlan" id="9be69927715aade5762de81c5b7b0865">
                    <mxCell style="endArrow=none;" parent="1" source="p2" target="macvlan" edge="1">
                        <mxGeometry relative="1" as="geometry"/>
                    </mxCell>
                </object>
                <mxCell id="9be69927715aade5762de81c5b7b0865-src" value="Gi0-0-0-0" style="labelBackgroundColor=#ffffff;;" parent="9be69927715aade5762de81c5b7b0865" vertex="1" connectable="0">
                    <mxGeometry x="-0.5" relative="1" as="geometry">
                        <mxPoint as="offset"/>
                    </mxGeometry>
                </mxCell>
                <mxCell id="9be69927715aade5762de81c5b7b0865-trgt" value="ens256.112" style="labelBackgroundColor=#ffffff;;" parent="9be69927715aade5762de81c5b7b0865" vertex="1" connectable="0">
                    <mxGeometry x="0.5" relative="-1" as="geometry">
                        <mxPoint as="offset"/>
                    </mxGeometry>
                </mxCell>
                <object label="" src_label="Gi0/0/0/1" trgt_label="Gi0-0-0-1" source="p1" target="p2" id="e9067e8ab555bc2be04cd6e1b6c7eb32">
                    <mxCell style="endArrow=none;" parent="1" source="p1" target="p2" edge="1">
                        <mxGeometry relative="1" as="geometry"/>
                    </mxCell>
                </object>
                <mxCell id="e9067e8ab555bc2be04cd6e1b6c7eb32-src" value="Gi0/0/0/1" style="labelBackgroundColor=#ffffff;;" parent="e9067e8ab555bc2be04cd6e1b6c7eb32" vertex="1" connectable="0">
                    <mxGeometry x="-0.5" relative="1" as="geometry">
                        <mxPoint as="offset"/>
                    </mxGeometry>
                </mxCell>
                <mxCell id="e9067e8ab555bc2be04cd6e1b6c7eb32-trgt" value="Gi0-0-0-1" style="labelBackgroundColor=#ffffff;;" parent="e9067e8ab555bc2be04cd6e1b6c7eb32" vertex="1" connectable="0">
                    <mxGeometry x="0.5" relative="-1" as="geometry">
                        <mxPoint as="offset"/>
                    </mxGeometry>
                </mxCell>
                <object label="pe1 1.255.0.4/32" id="pe1">
                    <mxCell style="rounded=1;whiteSpace=wrap;html=1;" parent="1" vertex="1">
                        <mxGeometry x="230" y="200" width="80" height="60" as="geometry"/>
                    </mxCell>
                </object>
                <object label="" src_label="Gi0/0/0/2" trgt_label="Gi0-0-0-0" source="p1" target="pe1" id="9ddbe0b5858c8935842dc615d04e65fd">
                    <mxCell style="endArrow=none;" parent="1" source="p1" target="pe1" edge="1">
                        <mxGeometry relative="1" as="geometry"/>
                    </mxCell>
                </object>
                <mxCell id="9ddbe0b5858c8935842dc615d04e65fd-src" value="Gi0/0/0/2" style="labelBackgroundColor=#ffffff;;" parent="9ddbe0b5858c8935842dc615d04e65fd" vertex="1" connectable="0">
                    <mxGeometry x="-0.5" relative="1" as="geometry">
                        <mxPoint as="offset"/>
                    </mxGeometry>
                </mxCell>
                <mxCell id="9ddbe0b5858c8935842dc615d04e65fd-trgt" value="Gi0-0-0-0" style="labelBackgroundColor=#ffffff;;" parent="9ddbe0b5858c8935842dc615d04e65fd" vertex="1" connectable="0">
                    <mxGeometry x="0.5" relative="-1" as="geometry">
                        <mxPoint as="offset"/>
                    </mxGeometry>
                </mxCell>
                <object label="" src_label="Gi0-0-0-2" trgt_label="Gi0-0-0-1" source="p2" target="pe1" id="3a3ef6235587b8000ed7a43fb8aaeaab">
                    <mxCell style="endArrow=none;" parent="1" source="p2" target="pe1" edge="1">
                        <mxGeometry relative="1" as="geometry"/>
                    </mxCell>
                </object>
                <mxCell id="3a3ef6235587b8000ed7a43fb8aaeaab-src" value="Gi0-0-0-2" style="labelBackgroundColor=#ffffff;;" parent="3a3ef6235587b8000ed7a43fb8aaeaab" vertex="1" connectable="0">
                    <mxGeometry x="-0.5" relative="1" as="geometry">
                        <mxPoint as="offset"/>
                    </mxGeometry>
                </mxCell>
                <mxCell id="3a3ef6235587b8000ed7a43fb8aaeaab-trgt" value="Gi0-0-0-1" style="labelBackgroundColor=#ffffff;;" parent="3a3ef6235587b8000ed7a43fb8aaeaab" vertex="1" connectable="0">
                    <mxGeometry x="0.5" relative="-1" as="geometry">
                        <mxPoint as="offset"/>
                    </mxGeometry>
                </mxCell>
                <object label="pe2 1.255.0.5/32" id="pe2">
                    <mxCell style="rounded=1;whiteSpace=wrap;html=1;" vertex="1" parent="1">
                        <mxGeometry x="500" y="-70" width="80" height="60" as="geometry"/>
                    </mxCell>
                </object>
                <object label="" src_label="Gi0/0/0/3" trgt_label="ge-0/0/0" source="p1" target="pe2" id="232937b8f9b03b3d9847fe91406d46c3">
                    <mxCell style="endArrow=none;" edge="1" parent="1" source="p1" target="pe2">
                        <mxGeometry relative="1" as="geometry"/>
                    </mxCell>
                </object>
                <mxCell id="232937b8f9b03b3d9847fe91406d46c3-src" value="Gi0/0/0/3" style="labelBackgroundColor=#ffffff;;" connectable="0" vertex="1" parent="232937b8f9b03b3d9847fe91406d46c3">
                    <mxGeometry x="-0.5" relative="1" as="geometry">
                        <mxPoint as="offset"/>
                    </mxGeometry>
                </mxCell>
                <mxCell id="232937b8f9b03b3d9847fe91406d46c3-trgt" value="ge-0/0/0" style="labelBackgroundColor=#ffffff;;" connectable="0" vertex="1" parent="232937b8f9b03b3d9847fe91406d46c3">
                    <mxGeometry x="0.5" relative="-1" as="geometry">
                        <mxPoint as="offset"/>
                    </mxGeometry>
                </mxCell>
                <object label="" src_label="Gi0-0-0-3" trgt_label="ge-0/0/1" source="p2" target="pe2" id="9e2d08692a29e27c2c465050a49dbeb9">
                    <mxCell style="endArrow=none;" edge="1" parent="1" source="p2" target="pe2">
                        <mxGeometry relative="1" as="geometry"/>
                    </mxCell>
                </object>
                <mxCell id="9e2d08692a29e27c2c465050a49dbeb9-src" value="Gi0-0-0-3" style="labelBackgroundColor=#ffffff;;" connectable="0" vertex="1" parent="9e2d08692a29e27c2c465050a49dbeb9">
                    <mxGeometry x="-0.5" relative="1" as="geometry">
                        <mxPoint as="offset"/>
                    </mxGeometry>
                </mxCell>
                <mxCell id="9e2d08692a29e27c2c465050a49dbeb9-trgt" value="ge-0/0/1" style="labelBackgroundColor=#ffffff;;" connectable="0" vertex="1" parent="9e2d08692a29e27c2c465050a49dbeb9">
                    <mxGeometry x="0.5" relative="-1" as="geometry">
                        <mxPoint as="offset"/>
                    </mxGeometry>
                </mxCell>
                <object label="cpe1 1.255.0.6/32" id="cpe1">
                    <mxCell style="rounded=1;whiteSpace=wrap;html=1;" parent="1" vertex="1">
                        <mxGeometry x="230" y="390" width="80" height="60" as="geometry"/>
                    </mxCell>
                </object>
                <object label="" src_label="Gi0-0-0-2" trgt_label="Gi2" source="pe1" target="cpe1" id="ece266b6beffb722fdd0ee24c39e62bc">
                    <mxCell style="endArrow=none;" parent="1" source="pe1" target="cpe1" edge="1">
                        <mxGeometry relative="1" as="geometry"/>
                    </mxCell>
                </object>
                <mxCell id="ece266b6beffb722fdd0ee24c39e62bc-src" value="Gi0-0-0-2" style="labelBackgroundColor=#ffffff;;" parent="ece266b6beffb722fdd0ee24c39e62bc" vertex="1" connectable="0">
                    <mxGeometry x="-0.5" relative="1" as="geometry">
                        <mxPoint as="offset"/>
                    </mxGeometry>
                </mxCell>
                <mxCell id="ece266b6beffb722fdd0ee24c39e62bc-trgt" value="Gi2" style="labelBackgroundColor=#ffffff;;" parent="ece266b6beffb722fdd0ee24c39e62bc" vertex="1" connectable="0">
                    <mxGeometry x="0.5" relative="-1" as="geometry">
                        <mxPoint as="offset"/>
                    </mxGeometry>
                </mxCell>
                <object label="" src_label="Gi0-0-0-3" trgt_label="Gi3" source="pe1" target="cpe1" id="f1a668c772e625629df611925295c11b">
                    <mxCell style="endArrow=none;" parent="1" source="pe1" target="cpe1" edge="1">
                        <mxGeometry relative="1" as="geometry"/>
                    </mxCell>
                </object>
                <mxCell id="f1a668c772e625629df611925295c11b-src" value="Gi0-0-0-3" style="labelBackgroundColor=#ffffff;;" parent="f1a668c772e625629df611925295c11b" vertex="1" connectable="0">
                    <mxGeometry x="-0.5" relative="1" as="geometry">
                        <mxPoint as="offset"/>
                    </mxGeometry>
                </mxCell>
                <mxCell id="f1a668c772e625629df611925295c11b-trgt" value="Gi3" style="labelBackgroundColor=#ffffff;;" parent="f1a668c772e625629df611925295c11b" vertex="1" connectable="0">
                    <mxGeometry x="0.5" relative="-1" as="geometry">
                        <mxPoint as="offset"/>
                    </mxGeometry>
                </mxCell>
                <object label="n9kv1 1.255.0.7/32" id="n9kv1">
                    <mxCell style="rounded=1;whiteSpace=wrap;html=1;" parent="1" vertex="1">
                        <mxGeometry x="450" y="210" width="80" height="60" as="geometry"/>
                    </mxCell>
                </object>
                <object label="" src_label="Gi0-0-0-4" trgt_label="Ethernet1/1" source="pe1" target="n9kv1" id="474902778a48380fdede0d574a071d05">
                    <mxCell style="endArrow=none;" parent="1" source="pe1" target="n9kv1" edge="1">
                        <mxGeometry relative="1" as="geometry"/>
                    </mxCell>
                </object>
                <mxCell id="474902778a48380fdede0d574a071d05-src" value="Gi0-0-0-4" style="labelBackgroundColor=#ffffff;;" parent="474902778a48380fdede0d574a071d05" vertex="1" connectable="0">
                    <mxGeometry x="-0.5" relative="1" as="geometry">
                        <mxPoint as="offset"/>
                    </mxGeometry>
                </mxCell>
                <mxCell id="474902778a48380fdede0d574a071d05-trgt" value="Ethernet1/1" style="labelBackgroundColor=#ffffff;;" parent="474902778a48380fdede0d574a071d05" vertex="1" connectable="0">
                    <mxGeometry x="0.5" relative="-1" as="geometry">
                        <mxPoint as="offset"/>
                    </mxGeometry>
                </mxCell>
            </root>
        </mxGraphModel>
    </diagram>
</mxfile>